<svg width="174" height="25" viewBox="0 0 174 25" fill="none" xmlns="http://www.w3.org/2000/svg">
<g id="Frame 427320568">
<g id="Capa_1-2">
<path id="Vector" d="M22.0249 11.7554V20.2343H16.0527V18.0244C13.2996 19.8284 9.86884 20.5049 7.20044 20.5049C3.13431 20.5049 0 19.1519 0 15.2282C0 10.7181 4.65911 9.54552 8.93701 9.54552C11.3089 9.54552 13.6808 9.86122 16.0527 10.4024C15.8833 8.10231 13.935 7.516 11.2242 7.516C8.51346 7.516 5.80271 7.96701 2.11778 8.86901L1.27067 4.53937C4.91324 3.63737 8.59817 3.14126 12.3255 3.14126C18.8482 3.09616 21.9402 5.44138 22.0249 11.7554ZM16.0527 15.2733V14.0105C14.0197 13.6948 11.9443 13.4693 9.86884 13.4693C7.24279 13.4693 6.26862 13.8301 6.26862 14.8223C6.26862 15.8145 7.03102 16.1302 9.27586 16.1302C11.0971 16.0851 14.3162 15.589 16.0527 15.2733Z" fill="#000000"/>
<path id="Vector_2" d="M47.5226 11.3961V20.2358H41.5928V13.7414C41.5928 10.1333 40.4069 8.32931 36.722 8.32931C32.91 8.32931 30.7075 10.0882 30.7075 13.7414V20.2358H24.7354V3.63886H30.7075V7.5175C32.6135 4.94677 35.2819 3.09766 39.6445 3.09766C44.3459 3.09766 47.5226 5.30758 47.5226 11.3961Z" fill="#000000"/>
<path id="Vector_3" d="M64.5506 8.3713H58.1973V12.8813C58.1973 14.4599 58.7902 15.5423 60.5692 15.5423C61.9245 15.5423 63.2376 15.3619 64.5506 15.0011V20.1425C62.7716 20.5935 60.9927 20.819 59.1714 20.819C54.597 20.819 52.2251 18.9699 52.2251 15.0913V8.3713H49.0908V3.63576H52.2251V0.614028L58.1973 -1.05469V3.63576H64.5506V8.3713Z" fill="#000000"/>
<path id="Vector_4" d="M67.1758 -1.86328H73.1479V2.01536H67.1758V-1.86328ZM67.1758 3.63897H73.1479V20.2359H67.1758V3.63897Z" fill="#000000"/>
<path id="Vector_5" d="M86.8291 3.09766C93.2248 3.09766 97.1215 5.48798 97.8839 10.4039H91.7847C91.2764 9.00581 89.8363 8.0587 86.8291 8.0587C83.483 8.0587 81.7041 9.23131 81.7041 11.9373C81.7041 14.6434 83.483 15.816 86.8291 15.816C89.8363 15.816 91.2764 14.8689 91.7847 13.4708H97.8839C97.1215 18.4318 93.2248 20.777 86.8291 20.777C79.7134 20.777 75.7319 17.8004 75.7319 11.9373C75.7319 6.07428 79.671 3.09766 86.8291 3.09766Z" fill="#000000"/>
<path id="Vector_6" d="M100.467 -1.86328H106.439V2.01536H100.467V-1.86328ZM100.467 3.63897H106.439V20.2359H100.467V3.63897Z" fill="#000000"/>
<path id="Vector_7" d="M131.259 11.9373C131.259 18.6122 126.769 20.777 122.746 20.777C119.908 20.777 117.112 19.8299 115.545 17.2592V26.8656H109.573V3.63886H115.545V6.61549C117.112 4.04476 119.95 3.09766 122.746 3.09766C126.769 3.09766 131.259 5.26248 131.259 11.9373ZM125.033 11.9373C125.033 9.50192 123.466 8.32931 120.289 8.32931C117.112 8.32931 115.545 9.50192 115.545 11.9373C115.545 14.3728 117.112 15.5454 120.289 15.5454C123.466 15.5454 125.033 14.3728 125.033 11.9373Z" fill="#000000"/>
<path id="Vector_8" d="M133.335 11.9373C133.335 6.43509 137.063 3.09766 144.433 3.09766C151.802 3.09766 155.53 6.43509 155.53 11.9373C155.53 17.4396 151.802 20.777 144.433 20.777C137.063 20.777 133.335 17.4396 133.335 11.9373ZM149.303 11.9373C149.303 9.23131 147.736 8.0587 144.433 8.0587C141.129 8.0587 139.562 9.23131 139.562 11.9373C139.562 14.6434 141.129 15.816 144.433 15.816C147.736 15.816 149.303 14.6434 149.303 11.9373Z" fill="#000000"/>
<path id="Vector_9" d="M157.604 15.2754H163.831V20.2364H157.604V15.2754Z" fill="#000000"/>
</g>
</g>
</svg>
